<svg width="222" height="319" viewBox="0 0 222 319" fill="none" xmlns="http://www.w3.org/2000/svg">
<g clip-path="url(#clip0_743_2676)">
<circle cx="196" cy="32.1514" r="25" fill="#343434" stroke="black"/>
<circle cx="196" cy="134.151" r="25.5" fill="#DDC0B5"/>
<circle cx="195" cy="83.1514" r="25.5" fill="#F37021"/>
<circle cx="196" cy="185.151" r="25.5" fill="#A69088"/>
<circle cx="196" cy="288.151" r="25" fill="#F5F5F5" stroke="black"/>
<circle cx="195" cy="237.151" r="25.5" fill="#B4685E"/>
<path d="M45.9453 32.6514C48.3438 32.6514 49.7656 31.4717 49.7656 29.4873C49.7656 27.9951 48.7891 26.9404 47.25 26.7451V26.6201C48.3359 26.4248 49.1953 25.3623 49.1953 24.1904C49.1953 22.4639 47.9297 21.3779 45.8594 21.3779H41.5469V32.6514H45.9453ZM42.9531 22.6201H45.5625C46.9609 22.6201 47.7734 23.2842 47.7734 24.4326C47.7734 25.6279 46.9062 26.2373 45.2031 26.2373H42.9531V22.6201ZM42.9531 31.4092V27.4482H45.6016C47.3984 27.4482 48.3203 28.1123 48.3203 29.417C48.3203 30.7217 47.4297 31.4092 45.7344 31.4092H42.9531ZM51.9688 32.6514H53.3125V20.8857H51.9688V32.6514ZM58.5156 31.6201C57.5391 31.6201 56.8125 31.1201 56.8125 30.2607C56.8125 29.417 57.375 28.9717 58.6562 28.8857L60.9219 28.7373V29.5107C60.9219 30.7139 59.8984 31.6201 58.5156 31.6201ZM58.2656 32.7998C59.3906 32.7998 60.3125 32.3076 60.8594 31.4092H60.9844V32.6514H62.2656V26.8857C62.2656 25.1357 61.1172 24.0811 59.0625 24.0811C57.2656 24.0811 55.9375 24.9717 55.7578 26.3232H57.1172C57.3047 25.6592 58.0078 25.2764 59.0156 25.2764C60.2734 25.2764 60.9219 25.8467 60.9219 26.8857V27.6514L58.4922 27.7998C56.5312 27.917 55.4219 28.7842 55.4219 30.292C55.4219 31.8311 56.6328 32.7998 58.2656 32.7998ZM71.7188 26.8076C71.4844 25.3076 70.2344 24.0811 68.1875 24.0811C65.8281 24.0811 64.3281 25.7842 64.3281 28.4092C64.3281 31.0889 65.8359 32.7998 68.1953 32.7998C70.2188 32.7998 71.4766 31.6592 71.7188 30.1123H70.3594C70.1094 31.0654 69.3203 31.5889 68.1875 31.5889C66.6875 31.5889 65.7188 30.3545 65.7188 28.4092C65.7188 26.5029 66.6719 25.292 68.1875 25.292C69.3984 25.292 70.1406 25.9717 70.3594 26.8076H71.7188ZM75.25 27.9092H75.125V20.8857H73.7812V32.6514H75.125V29.4561L75.9297 28.7061L79.0859 32.6514H80.7969L76.9297 27.8389L80.5547 24.2295H78.9062L75.25 27.9092ZM83.5 32.7295C84.0625 32.7295 84.5156 32.2686 84.5156 31.7139C84.5156 31.1514 84.0625 30.6982 83.5 30.6982C82.9453 30.6982 82.4844 31.1514 82.4844 31.7139C82.4844 32.2686 82.9453 32.7295 83.5 32.7295ZM83.5 26.7217C84.0625 26.7217 84.5156 26.2607 84.5156 25.7061C84.5156 25.1436 84.0625 24.6904 83.5 24.6904C82.9453 24.6904 82.4844 25.1436 82.4844 25.7061C82.4844 26.2607 82.9453 26.7217 83.5 26.7217ZM95.5703 32.6514H96.6875L97.3281 29.5029H99.375L99.5938 28.3779H97.5547L98.1406 25.5342H100.102L100.32 24.417H98.375L99 21.3779H97.8828L97.25 24.417H94.7031L95.3125 21.3779H94.2031L93.5703 24.417H91.6406L91.4141 25.5342H93.3438L92.7734 28.3779H90.9219L90.7031 29.5029H92.5312L91.8984 32.6514H93.0078L93.6484 29.5029H96.2109L95.5703 32.6514ZM93.8672 28.4014L94.4531 25.5186H97.0312L96.4453 28.4014H93.8672ZM104.078 27.4561H105.508C107.109 27.4561 108.102 28.2686 108.102 29.5732C108.102 30.8076 107.047 31.6904 105.562 31.6904C104.109 31.6904 103.094 30.917 102.969 29.7139H101.609C101.711 31.6436 103.289 32.917 105.578 32.917C107.805 32.917 109.547 31.4717 109.547 29.6123C109.547 28.0732 108.617 27.0107 107.086 26.8154V26.6904C108.32 26.3936 109.062 25.4092 109.062 24.0654C109.062 22.4248 107.492 21.1123 105.523 21.1123C103.375 21.1123 101.977 22.3154 101.836 24.2686H103.203C103.32 23.0576 104.172 22.3389 105.469 22.3389C106.766 22.3389 107.633 23.1045 107.633 24.2529C107.633 25.4248 106.727 26.2529 105.445 26.2529H104.078V27.4561ZM116.953 32.6514H118.328V30.3154H119.93V29.0576H118.328V21.3779H116.289C114.258 24.417 112.469 27.2451 111.461 29.0342V30.3154H116.953V32.6514ZM112.898 28.9717C114.242 26.6904 115.711 24.3623 116.867 22.6826H116.961V29.0654H112.898V28.9717ZM124.406 27.4561H125.836C127.438 27.4561 128.43 28.2686 128.43 29.5732C128.43 30.8076 127.375 31.6904 125.891 31.6904C124.438 31.6904 123.422 30.917 123.297 29.7139H121.938C122.039 31.6436 123.617 32.917 125.906 32.917C128.133 32.917 129.875 31.4717 129.875 29.6123C129.875 28.0732 128.945 27.0107 127.414 26.8154V26.6904C128.648 26.3936 129.391 25.4092 129.391 24.0654C129.391 22.4248 127.82 21.1123 125.852 21.1123C123.703 21.1123 122.305 22.3154 122.164 24.2686H123.531C123.648 23.0576 124.5 22.3389 125.797 22.3389C127.094 22.3389 127.961 23.1045 127.961 24.2529C127.961 25.4248 127.055 26.2529 125.773 26.2529H124.406V27.4561ZM137.281 32.6514H138.656V30.3154H140.258V29.0576H138.656V21.3779H136.617C134.586 24.417 132.797 27.2451 131.789 29.0342V30.3154H137.281V32.6514ZM133.227 28.9717C134.57 26.6904 136.039 24.3623 137.195 22.6826H137.289V29.0654H133.227V28.9717ZM144.734 27.4561H146.164C147.766 27.4561 148.758 28.2686 148.758 29.5732C148.758 30.8076 147.703 31.6904 146.219 31.6904C144.766 31.6904 143.75 30.917 143.625 29.7139H142.266C142.367 31.6436 143.945 32.917 146.234 32.917C148.461 32.917 150.203 31.4717 150.203 29.6123C150.203 28.0732 149.273 27.0107 147.742 26.8154V26.6904C148.977 26.3936 149.719 25.4092 149.719 24.0654C149.719 22.4248 148.148 21.1123 146.18 21.1123C144.031 21.1123 142.633 22.3154 142.492 24.2686H143.859C143.977 23.0576 144.828 22.3389 146.125 22.3389C147.422 22.3389 148.289 23.1045 148.289 24.2529C148.289 25.4248 147.383 26.2529 146.102 26.2529H144.734V27.4561ZM157.609 32.6514H158.984V30.3154H160.586V29.0576H158.984V21.3779H156.945C154.914 24.417 153.125 27.2451 152.117 29.0342V30.3154H157.609V32.6514ZM153.555 28.9717C154.898 26.6904 156.367 24.3623 157.523 22.6826H157.617V29.0654H153.555V28.9717ZM30.6719 74.3779V85.6514H32.0781V81.6279H34.9141C37.0312 81.6279 38.5391 80.1357 38.5391 78.0264C38.5391 75.8779 37.0625 74.3779 34.9297 74.3779H30.6719ZM32.0781 75.6279H34.5625C36.1953 75.6279 37.0938 76.4795 37.0938 78.0264C37.0938 79.5186 36.1641 80.3779 34.5625 80.3779H32.0781V75.6279ZM40.6719 85.6514H42.0156V80.4326C42.0156 79.2451 42.9453 78.3857 44.2266 78.3857C44.4922 78.3857 44.9766 78.4326 45.0859 78.4639V77.1201C44.9141 77.0967 44.6328 77.0811 44.4141 77.0811C43.2969 77.0811 42.3281 77.6592 42.0781 78.4795H41.9531V77.2295H40.6719V85.6514ZM46.7969 85.6514H48.1406V77.2295H46.7969V85.6514ZM47.4688 75.5186C47.9844 75.5186 48.4062 75.0967 48.4062 74.5811C48.4062 74.0654 47.9844 73.6436 47.4688 73.6436C46.9531 73.6436 46.5312 74.0654 46.5312 74.5811C46.5312 75.0967 46.9531 75.5186 47.4688 75.5186ZM50.7031 85.6514H52.0469V80.4326C52.0469 79.2451 52.8984 78.292 54 78.292C55.0625 78.292 55.7578 78.9326 55.7578 79.9326V85.6514H57.1016V80.2373C57.1016 79.167 57.8828 78.292 59.0547 78.292C60.2422 78.292 60.8281 78.9014 60.8281 80.1436V85.6514H62.1719V79.8311C62.1719 78.0654 61.2109 77.0811 59.4922 77.0811C58.3281 77.0811 57.3672 77.667 56.9141 78.5576H56.7891C56.3984 77.6826 55.6016 77.0811 54.4609 77.0811C53.3359 77.0811 52.4922 77.6201 52.1094 78.5576H51.9844V77.2295H50.7031V85.6514ZM67.2188 84.6201C66.2422 84.6201 65.5156 84.1201 65.5156 83.2607C65.5156 82.417 66.0781 81.9717 67.3594 81.8857L69.625 81.7373V82.5107C69.625 83.7139 68.6016 84.6201 67.2188 84.6201ZM66.9688 85.7998C68.0938 85.7998 69.0156 85.3076 69.5625 84.4092H69.6875V85.6514H70.9688V79.8857C70.9688 78.1357 69.8203 77.0811 67.7656 77.0811C65.9688 77.0811 64.6406 77.9717 64.4609 79.3232H65.8203C66.0078 78.6592 66.7109 78.2764 67.7188 78.2764C68.9766 78.2764 69.625 78.8467 69.625 79.8857V80.6514L67.1953 80.7998C65.2344 80.917 64.125 81.7842 64.125 83.292C64.125 84.8311 65.3359 85.7998 66.9688 85.7998ZM73.4531 85.6514H74.7969V80.4326C74.7969 79.2451 75.7266 78.3857 77.0078 78.3857C77.2734 78.3857 77.7578 78.4326 77.8672 78.4639V77.1201C77.6953 77.0967 77.4141 77.0811 77.1953 77.0811C76.0781 77.0811 75.1094 77.6592 74.8594 78.4795H74.7344V77.2295H73.4531V85.6514ZM80.2656 88.6982C81.7578 88.6982 82.4297 88.1201 83.1484 86.167L86.4375 77.2295H85.0078L82.7031 84.1592H82.5781L80.2656 77.2295H78.8125L81.9297 85.6592L81.7734 86.1592C81.4219 87.1748 81 87.542 80.2266 87.542C80.0391 87.542 79.8281 87.5342 79.6641 87.5029V88.6514C79.8516 88.6826 80.0859 88.6982 80.2656 88.6982ZM89.3438 85.7295C89.9062 85.7295 90.3594 85.2686 90.3594 84.7139C90.3594 84.1514 89.9062 83.6982 89.3438 83.6982C88.7891 83.6982 88.3281 84.1514 88.3281 84.7139C88.3281 85.2686 88.7891 85.7295 89.3438 85.7295ZM89.3438 79.7217C89.9062 79.7217 90.3594 79.2607 90.3594 78.7061C90.3594 78.1436 89.9062 77.6904 89.3438 77.6904C88.7891 77.6904 88.3281 78.1436 88.3281 78.7061C88.3281 79.2607 88.7891 79.7217 89.3438 79.7217ZM101.414 85.6514H102.531L103.172 82.5029H105.219L105.438 81.3779H103.398L103.984 78.5342H105.945L106.164 77.417H104.219L104.844 74.3779H103.727L103.094 77.417H100.547L101.156 74.3779H100.047L99.4141 77.417H97.4844L97.2578 78.5342H99.1875L98.6172 81.3779H96.7656L96.5469 82.5029H98.375L97.7422 85.6514H98.8516L99.4922 82.5029H102.055L101.414 85.6514ZM99.7109 81.4014L100.297 78.5186H102.875L102.289 81.4014H99.7109ZM109.203 85.6514V80.7686H114.195V79.5186H109.203V75.6436H114.641V74.3779H107.797V85.6514H109.203ZM118.922 80.4561H120.352C121.953 80.4561 122.945 81.2686 122.945 82.5732C122.945 83.8076 121.891 84.6904 120.406 84.6904C118.953 84.6904 117.938 83.917 117.812 82.7139H116.453C116.555 84.6436 118.133 85.917 120.422 85.917C122.648 85.917 124.391 84.4717 124.391 82.6123C124.391 81.0732 123.461 80.0107 121.93 79.8154V79.6904C123.164 79.3936 123.906 78.4092 123.906 77.0654C123.906 75.4248 122.336 74.1123 120.367 74.1123C118.219 74.1123 116.82 75.3154 116.68 77.2686H118.047C118.164 76.0576 119.016 75.3389 120.312 75.3389C121.609 75.3389 122.477 76.1045 122.477 77.2529C122.477 78.4248 121.57 79.2529 120.289 79.2529H118.922V80.4561ZM127.117 85.6514H128.594L133.609 75.6826V74.3779H126.148V75.6357H132.18V75.7451L127.117 85.6514ZM139.328 85.917C141.859 85.917 143.312 83.7764 143.312 80.0342C143.312 76.2998 141.836 74.1123 139.328 74.1123C136.805 74.1123 135.328 76.292 135.328 80.0107C135.328 83.7607 136.789 85.917 139.328 85.917ZM139.328 84.6904C137.664 84.6904 136.742 83.0264 136.742 80.0107C136.742 77.0342 137.68 75.3467 139.328 75.3467C140.977 75.3467 141.898 77.0186 141.898 80.0107C141.898 83.0342 140.992 84.6904 139.328 84.6904ZM145.547 77.5498V77.5576H146.906V77.5498C146.906 76.2217 147.797 75.3389 149.117 75.3389C150.359 75.3389 151.32 76.2061 151.32 77.3311C151.32 78.2373 150.969 78.8467 149.516 80.4248L145.617 84.6826V85.6514H152.914V84.3857H147.633V84.2607L150.344 81.3467C152.195 79.3623 152.727 78.4482 152.727 77.2764C152.727 75.4873 151.18 74.1123 149.156 74.1123C147.062 74.1123 145.547 75.5498 145.547 77.5498ZM157.984 85.6514H159.391V74.3779H157.992L154.992 76.5342V78.0186L157.859 75.9404H157.984V85.6514ZM13.0547 138.651V128.644H16.6875V127.378H8.01562V128.644H11.6484V138.651H13.0547ZM20.4844 131.269C21.8203 131.269 22.7109 132.253 22.7422 133.745H18.1016C18.2031 132.253 19.1406 131.269 20.4844 131.269ZM22.7031 136.472C22.3516 137.214 21.6172 137.612 20.5312 137.612C19.1016 137.612 18.1719 136.558 18.1016 134.894V134.831H24.1562V134.315C24.1562 131.698 22.7734 130.081 20.5 130.081C18.1875 130.081 16.7031 131.8 16.7031 134.448C16.7031 137.112 18.1641 138.8 20.5 138.8C22.3438 138.8 23.6406 137.917 24.0469 136.472H22.7031ZM26.2656 138.651H27.6094V133.433C27.6094 132.245 28.5391 131.386 29.8203 131.386C30.0859 131.386 30.5703 131.433 30.6797 131.464V130.12C30.5078 130.097 30.2266 130.081 30.0078 130.081C28.8906 130.081 27.9219 130.659 27.6719 131.479H27.5469V130.229H26.2656V138.651ZM33.3906 128.05V130.229H32.0312V131.354H33.3906V136.464C33.3906 138.073 34.0859 138.714 35.8203 138.714C36.0859 138.714 36.3438 138.683 36.6094 138.636V137.503C36.3594 137.526 36.2266 137.534 35.9844 137.534C35.1094 137.534 34.7344 137.112 34.7344 136.12V131.354H36.6094V130.229H34.7344V128.05H33.3906ZM38.6719 138.651H40.0156V130.229H38.6719V138.651ZM39.3438 128.519C39.8594 128.519 40.2812 128.097 40.2812 127.581C40.2812 127.065 39.8594 126.644 39.3438 126.644C38.8281 126.644 38.4062 127.065 38.4062 127.581C38.4062 128.097 38.8281 128.519 39.3438 128.519ZM45.1719 137.62C44.1953 137.62 43.4688 137.12 43.4688 136.261C43.4688 135.417 44.0312 134.972 45.3125 134.886L47.5781 134.737V135.511C47.5781 136.714 46.5547 137.62 45.1719 137.62ZM44.9219 138.8C46.0469 138.8 46.9688 138.308 47.5156 137.409H47.6406V138.651H48.9219V132.886C48.9219 131.136 47.7734 130.081 45.7188 130.081C43.9219 130.081 42.5938 130.972 42.4141 132.323H43.7734C43.9609 131.659 44.6641 131.276 45.6719 131.276C46.9297 131.276 47.5781 131.847 47.5781 132.886V133.651L45.1484 133.8C43.1875 133.917 42.0781 134.784 42.0781 136.292C42.0781 137.831 43.2891 138.8 44.9219 138.8ZM51.4062 138.651H52.75V133.433C52.75 132.245 53.6797 131.386 54.9609 131.386C55.2266 131.386 55.7109 131.433 55.8203 131.464V130.12C55.6484 130.097 55.3672 130.081 55.1484 130.081C54.0312 130.081 53.0625 130.659 52.8125 131.479H52.6875V130.229H51.4062V138.651ZM58.2188 141.698C59.7109 141.698 60.3828 141.12 61.1016 139.167L64.3906 130.229H62.9609L60.6562 137.159H60.5312L58.2188 130.229H56.7656L59.8828 138.659L59.7266 139.159C59.375 140.175 58.9531 140.542 58.1797 140.542C57.9922 140.542 57.7812 140.534 57.6172 140.503V141.651C57.8047 141.683 58.0391 141.698 58.2188 141.698ZM73.3906 138.651H74.7969V127.378H73.3984L70.3984 129.534V131.019L73.2656 128.94H73.3906V138.651ZM79.2812 138.729C79.8438 138.729 80.2969 138.269 80.2969 137.714C80.2969 137.151 79.8438 136.698 79.2812 136.698C78.7266 136.698 78.2656 137.151 78.2656 137.714C78.2656 138.269 78.7266 138.729 79.2812 138.729ZM79.2812 132.722C79.8438 132.722 80.2969 132.261 80.2969 131.706C80.2969 131.144 79.8438 130.69 79.2812 130.69C78.7266 130.69 78.2656 131.144 78.2656 131.706C78.2656 132.261 78.7266 132.722 79.2812 132.722ZM91.3516 138.651H92.4688L93.1094 135.503H95.1562L95.375 134.378H93.3359L93.9219 131.534H95.8828L96.1016 130.417H94.1562L94.7812 127.378H93.6641L93.0312 130.417H90.4844L91.0938 127.378H89.9844L89.3516 130.417H87.4219L87.1953 131.534H89.125L88.5547 134.378H86.7031L86.4844 135.503H88.3125L87.6797 138.651H88.7891L89.4297 135.503H91.9922L91.3516 138.651ZM89.6484 134.401L90.2344 131.519H92.8125L92.2266 134.401H89.6484ZM97.7344 127.378V138.651H101.602C104.953 138.651 106.922 136.565 106.922 133.011C106.922 129.464 104.945 127.378 101.602 127.378H97.7344ZM99.1406 128.644H101.508C104.008 128.644 105.484 130.269 105.484 133.026C105.484 135.776 104.023 137.386 101.508 137.386H99.1406V128.644ZM109.359 127.378V138.651H113.227C116.578 138.651 118.547 136.565 118.547 133.011C118.547 129.464 116.57 127.378 113.227 127.378H109.359ZM110.766 128.644H113.133C115.633 128.644 117.109 130.269 117.109 133.026C117.109 135.776 115.648 137.386 113.133 137.386H110.766V128.644ZM125.523 138.917C127.922 138.917 129.703 137.581 130.078 135.511H128.648C128.289 136.815 127.094 137.62 125.523 137.62C123.352 137.62 121.992 135.847 121.992 133.019C121.992 130.19 123.352 128.409 125.516 128.409C127.07 128.409 128.273 129.323 128.648 130.776H130.078C129.742 128.604 127.891 127.112 125.516 127.112C122.453 127.112 120.547 129.378 120.547 133.019C120.547 136.651 122.461 138.917 125.523 138.917ZM136.047 138.917C138.578 138.917 140.031 136.776 140.031 133.034C140.031 129.3 138.555 127.112 136.047 127.112C133.523 127.112 132.047 129.292 132.047 133.011C132.047 136.761 133.508 138.917 136.047 138.917ZM136.047 137.69C134.383 137.69 133.461 136.026 133.461 133.011C133.461 130.034 134.398 128.347 136.047 128.347C137.695 128.347 138.617 130.019 138.617 133.011C138.617 136.034 137.711 137.69 136.047 137.69ZM146.914 138.651C149.312 138.651 150.734 137.472 150.734 135.487C150.734 133.995 149.758 132.94 148.219 132.745V132.62C149.305 132.425 150.164 131.362 150.164 130.19C150.164 128.464 148.898 127.378 146.828 127.378H142.516V138.651H146.914ZM143.922 128.62H146.531C147.93 128.62 148.742 129.284 148.742 130.433C148.742 131.628 147.875 132.237 146.172 132.237H143.922V128.62ZM143.922 137.409V133.448H146.57C148.367 133.448 149.289 134.112 149.289 135.417C149.289 136.722 148.398 137.409 146.703 137.409H143.922ZM156.57 138.917C158.906 138.917 160.508 137.354 160.508 135.065C160.508 132.847 159.008 131.292 156.867 131.292C155.828 131.292 155.031 131.612 154.484 132.253H154.359L154.68 128.636H159.867V127.378H153.578L152.961 133.769H154.281C154.742 132.964 155.586 132.503 156.609 132.503C158.086 132.503 159.102 133.558 159.102 135.104C159.102 136.651 158.094 137.683 156.586 137.683C155.258 137.683 154.289 136.87 154.164 135.651H152.781C152.906 137.597 154.438 138.917 156.57 138.917ZM14.5078 191.651V181.644H18.1406V180.378H9.46875V181.644H13.1016V191.651H14.5078ZM21.9375 184.269C23.2734 184.269 24.1641 185.253 24.1953 186.745H19.5547C19.6562 185.253 20.5938 184.269 21.9375 184.269ZM24.1562 189.472C23.8047 190.214 23.0703 190.612 21.9844 190.612C20.5547 190.612 19.625 189.558 19.5547 187.894V187.831H25.6094V187.315C25.6094 184.698 24.2266 183.081 21.9531 183.081C19.6406 183.081 18.1562 184.8 18.1562 187.448C18.1562 190.112 19.6172 191.8 21.9531 191.8C23.7969 191.8 25.0938 190.917 25.5 189.472H24.1562ZM27.7188 191.651H29.0625V186.433C29.0625 185.245 29.9922 184.386 31.2734 184.386C31.5391 184.386 32.0234 184.433 32.1328 184.464V183.12C31.9609 183.097 31.6797 183.081 31.4609 183.081C30.3438 183.081 29.375 183.659 29.125 184.479H29V183.229H27.7188V191.651ZM34.8438 181.05V183.229H33.4844V184.354H34.8438V189.464C34.8438 191.073 35.5391 191.714 37.2734 191.714C37.5391 191.714 37.7969 191.683 38.0625 191.636V190.503C37.8125 190.526 37.6797 190.534 37.4375 190.534C36.5625 190.534 36.1875 190.112 36.1875 189.12V184.354H38.0625V183.229H36.1875V181.05H34.8438ZM40.125 191.651H41.4688V183.229H40.125V191.651ZM40.7969 181.519C41.3125 181.519 41.7344 181.097 41.7344 180.581C41.7344 180.065 41.3125 179.644 40.7969 179.644C40.2812 179.644 39.8594 180.065 39.8594 180.581C39.8594 181.097 40.2812 181.519 40.7969 181.519ZM46.625 190.62C45.6484 190.62 44.9219 190.12 44.9219 189.261C44.9219 188.417 45.4844 187.972 46.7656 187.886L49.0312 187.737V188.511C49.0312 189.714 48.0078 190.62 46.625 190.62ZM46.375 191.8C47.5 191.8 48.4219 191.308 48.9688 190.409H49.0938V191.651H50.375V185.886C50.375 184.136 49.2266 183.081 47.1719 183.081C45.375 183.081 44.0469 183.972 43.8672 185.323H45.2266C45.4141 184.659 46.1172 184.276 47.125 184.276C48.3828 184.276 49.0312 184.847 49.0312 185.886V186.651L46.6016 186.8C44.6406 186.917 43.5312 187.784 43.5312 189.292C43.5312 190.831 44.7422 191.8 46.375 191.8ZM52.8594 191.651H54.2031V186.433C54.2031 185.245 55.1328 184.386 56.4141 184.386C56.6797 184.386 57.1641 184.433 57.2734 184.464V183.12C57.1016 183.097 56.8203 183.081 56.6016 183.081C55.4844 183.081 54.5156 183.659 54.2656 184.479H54.1406V183.229H52.8594V191.651ZM59.6719 194.698C61.1641 194.698 61.8359 194.12 62.5547 192.167L65.8438 183.229H64.4141L62.1094 190.159H61.9844L59.6719 183.229H58.2188L61.3359 191.659L61.1797 192.159C60.8281 193.175 60.4062 193.542 59.6328 193.542C59.4453 193.542 59.2344 193.534 59.0703 193.503V194.651C59.2578 194.683 59.4922 194.698 59.6719 194.698ZM72.0781 183.55V183.558H73.4375V183.55C73.4375 182.222 74.3281 181.339 75.6484 181.339C76.8906 181.339 77.8516 182.206 77.8516 183.331C77.8516 184.237 77.5 184.847 76.0469 186.425L72.1484 190.683V191.651H79.4453V190.386H74.1641V190.261L76.875 187.347C78.7266 185.362 79.2578 184.448 79.2578 183.276C79.2578 181.487 77.7109 180.112 75.6875 180.112C73.5938 180.112 72.0781 181.55 72.0781 183.55ZM82.9375 191.729C83.5 191.729 83.9531 191.269 83.9531 190.714C83.9531 190.151 83.5 189.698 82.9375 189.698C82.3828 189.698 81.9219 190.151 81.9219 190.714C81.9219 191.269 82.3828 191.729 82.9375 191.729ZM82.9375 185.722C83.5 185.722 83.9531 185.261 83.9531 184.706C83.9531 184.144 83.5 183.69 82.9375 183.69C82.3828 183.69 81.9219 184.144 81.9219 184.706C81.9219 185.261 82.3828 185.722 82.9375 185.722ZM95.0078 191.651H96.125L96.7656 188.503H98.8125L99.0312 187.378H96.9922L97.5781 184.534H99.5391L99.7578 183.417H97.8125L98.4375 180.378H97.3203L96.6875 183.417H94.1406L94.75 180.378H93.6406L93.0078 183.417H91.0781L90.8516 184.534H92.7812L92.2109 187.378H90.3594L90.1406 188.503H91.9688L91.3359 191.651H92.4453L93.0859 188.503H95.6484L95.0078 191.651ZM93.3047 187.401L93.8906 184.519H96.4688L95.8828 187.401H93.3047ZM108.719 191.651H110.195L106.039 180.378H104.648L100.492 191.651H101.969L103.102 188.425H107.586L108.719 191.651ZM105.281 182.198H105.406L107.172 187.229H103.516L105.281 182.198ZM115.82 191.909C118.133 191.909 119.773 190.292 119.773 188.026C119.773 185.839 118.219 184.253 116.07 184.253C114.727 184.253 113.625 184.894 113.07 185.987H112.945C113.023 182.987 114.062 181.362 115.898 181.362C117.008 181.362 117.859 182.003 118.164 183.058H119.609C119.25 181.245 117.828 180.112 115.914 180.112C113.156 180.112 111.578 182.331 111.578 186.206C111.578 187.448 111.758 188.487 112.125 189.347C112.828 191.003 114.125 191.909 115.82 191.909ZM115.805 190.675C114.359 190.675 113.258 189.534 113.258 188.026C113.258 186.534 114.328 185.472 115.82 185.472C117.312 185.472 118.352 186.534 118.352 188.073C118.352 189.55 117.25 190.675 115.805 190.675ZM125.641 191.909C128.398 191.909 129.977 189.69 129.977 185.815C129.977 184.573 129.797 183.534 129.43 182.675C128.727 181.011 127.422 180.112 125.734 180.112C123.422 180.112 121.781 181.729 121.781 183.995C121.781 186.183 123.336 187.769 125.484 187.769C126.828 187.769 127.93 187.128 128.484 186.034H128.516H128.547H128.609C128.531 189.034 127.492 190.659 125.656 190.659C124.547 190.659 123.695 190.019 123.391 188.964H121.945C122.305 190.776 123.727 191.909 125.641 191.909ZM125.734 186.55C124.242 186.55 123.203 185.487 123.203 183.948C123.203 182.472 124.305 181.347 125.75 181.347C127.195 181.347 128.297 182.487 128.297 183.995C128.297 185.487 127.227 186.55 125.734 186.55ZM136.031 191.917C138.562 191.917 140.016 189.776 140.016 186.034C140.016 182.3 138.539 180.112 136.031 180.112C133.508 180.112 132.031 182.292 132.031 186.011C132.031 189.761 133.492 191.917 136.031 191.917ZM136.031 190.69C134.367 190.69 133.445 189.026 133.445 186.011C133.445 183.034 134.383 181.347 136.031 181.347C137.68 181.347 138.602 183.019 138.602 186.011C138.602 189.034 137.695 190.69 136.031 190.69ZM146.172 191.917C148.562 191.917 150.234 190.565 150.234 188.636C150.234 187.167 149.305 186.026 147.891 185.761V185.636C149.055 185.315 149.773 184.354 149.773 183.12C149.773 181.362 148.281 180.112 146.172 180.112C144.062 180.112 142.57 181.362 142.57 183.12C142.57 184.347 143.305 185.323 144.453 185.636V185.761C143.039 186.026 142.109 187.167 142.109 188.636C142.109 190.565 143.781 191.917 146.172 191.917ZM146.172 190.714C144.609 190.714 143.531 189.823 143.531 188.534C143.531 187.245 144.609 186.354 146.172 186.354C147.734 186.354 148.812 187.245 148.812 188.534C148.812 189.823 147.734 190.714 146.172 190.714ZM146.172 185.167C144.844 185.167 143.953 184.401 143.953 183.253C143.953 182.089 144.836 181.315 146.172 181.315C147.508 181.315 148.391 182.089 148.391 183.253C148.391 184.401 147.5 185.167 146.172 185.167ZM156.391 191.917C158.781 191.917 160.453 190.565 160.453 188.636C160.453 187.167 159.523 186.026 158.109 185.761V185.636C159.273 185.315 159.992 184.354 159.992 183.12C159.992 181.362 158.5 180.112 156.391 180.112C154.281 180.112 152.789 181.362 152.789 183.12C152.789 184.347 153.523 185.323 154.672 185.636V185.761C153.258 186.026 152.328 187.167 152.328 188.636C152.328 190.565 154 191.917 156.391 191.917ZM156.391 190.714C154.828 190.714 153.75 189.823 153.75 188.534C153.75 187.245 154.828 186.354 156.391 186.354C157.953 186.354 159.031 187.245 159.031 188.534C159.031 189.823 157.953 190.714 156.391 190.714ZM156.391 185.167C155.062 185.167 154.172 184.401 154.172 183.253C154.172 182.089 155.055 181.315 156.391 181.315C157.727 181.315 158.609 182.089 158.609 183.253C158.609 184.401 157.719 185.167 156.391 185.167ZM1.80469 241.706C1.95312 243.651 3.60156 244.917 5.99219 244.917C8.57031 244.917 10.2031 243.597 10.2031 241.526C10.2031 239.87 9.26562 238.964 6.92969 238.378L5.75 238.065C4.19531 237.667 3.57812 237.159 3.57812 236.276C3.57812 235.136 4.57031 234.386 6.07031 234.386C7.47656 234.386 8.42969 235.073 8.625 236.229H10.0391C9.92188 234.409 8.29688 233.112 6.11719 233.112C3.73438 233.112 2.13281 234.409 2.13281 236.323C2.13281 237.925 3.01562 238.847 5.05469 239.362L6.5 239.737C8.05469 240.128 8.75781 240.737 8.75781 241.698C8.75781 242.815 7.64062 243.636 6.125 243.636C4.52344 243.636 3.39844 242.886 3.22656 241.706H1.80469ZM15.7344 237.269C17.0703 237.269 17.9609 238.253 17.9922 239.745H13.3516C13.4531 238.253 14.3906 237.269 15.7344 237.269ZM17.9531 242.472C17.6016 243.214 16.8672 243.612 15.7812 243.612C14.3516 243.612 13.4219 242.558 13.3516 240.894V240.831H19.4062V240.315C19.4062 237.698 18.0234 236.081 15.75 236.081C13.4375 236.081 11.9531 237.8 11.9531 240.448C11.9531 243.112 13.4141 244.8 15.75 244.8C17.5938 244.8 18.8906 243.917 19.2969 242.472H17.9531ZM28.4844 238.808C28.25 237.308 27 236.081 24.9531 236.081C22.5938 236.081 21.0938 237.784 21.0938 240.409C21.0938 243.089 22.6016 244.8 24.9609 244.8C26.9844 244.8 28.2422 243.659 28.4844 242.112H27.125C26.875 243.065 26.0859 243.589 24.9531 243.589C23.4531 243.589 22.4844 242.354 22.4844 240.409C22.4844 238.503 23.4375 237.292 24.9531 237.292C26.1641 237.292 26.9062 237.972 27.125 238.808H28.4844ZM33.9297 244.8C36.3281 244.8 37.8125 243.144 37.8125 240.44C37.8125 237.729 36.3281 236.081 33.9297 236.081C31.5312 236.081 30.0469 237.729 30.0469 240.44C30.0469 243.144 31.5312 244.8 33.9297 244.8ZM33.9297 243.589C32.3359 243.589 31.4375 242.433 31.4375 240.44C31.4375 238.44 32.3359 237.292 33.9297 237.292C35.5234 237.292 36.4219 238.44 36.4219 240.44C36.4219 242.433 35.5234 243.589 33.9297 243.589ZM39.9219 244.651H41.2656V239.667C41.2656 238.19 42.1328 237.292 43.4766 237.292C44.8203 237.292 45.4609 238.011 45.4609 239.526V244.651H46.8047V239.198C46.8047 237.198 45.75 236.081 43.8594 236.081C42.5703 236.081 41.75 236.628 41.3281 237.558H41.2031V236.229H39.9219V244.651ZM52.3828 244.8C53.5469 244.8 54.5469 244.245 55.0781 243.308H55.2031V244.651H56.4844V232.886H55.1406V237.558H55.0234C54.5469 236.636 53.5547 236.081 52.3828 236.081C50.2422 236.081 48.8438 237.8 48.8438 240.44C48.8438 243.089 50.2266 244.8 52.3828 244.8ZM52.6953 237.292C54.2188 237.292 55.1719 238.511 55.1719 240.44C55.1719 242.386 54.2266 243.589 52.6953 243.589C51.1562 243.589 50.2344 242.409 50.2344 240.44C50.2344 238.479 51.1641 237.292 52.6953 237.292ZM61.6875 243.62C60.7109 243.62 59.9844 243.12 59.9844 242.261C59.9844 241.417 60.5469 240.972 61.8281 240.886L64.0938 240.737V241.511C64.0938 242.714 63.0703 243.62 61.6875 243.62ZM61.4375 244.8C62.5625 244.8 63.4844 244.308 64.0312 243.409H64.1562V244.651H65.4375V238.886C65.4375 237.136 64.2891 236.081 62.2344 236.081C60.4375 236.081 59.1094 236.972 58.9297 238.323H60.2891C60.4766 237.659 61.1797 237.276 62.1875 237.276C63.4453 237.276 64.0938 237.847 64.0938 238.886V239.651L61.6641 239.8C59.7031 239.917 58.5938 240.784 58.5938 242.292C58.5938 243.831 59.8047 244.8 61.4375 244.8ZM67.9219 244.651H69.2656V239.433C69.2656 238.245 70.1953 237.386 71.4766 237.386C71.7422 237.386 72.2266 237.433 72.3359 237.464V236.12C72.1641 236.097 71.8828 236.081 71.6641 236.081C70.5469 236.081 69.5781 236.659 69.3281 237.479H69.2031V236.229H67.9219V244.651ZM74.7344 247.698C76.2266 247.698 76.8984 247.12 77.6172 245.167L80.9062 236.229H79.4766L77.1719 243.159H77.0469L74.7344 236.229H73.2812L76.3984 244.659L76.2422 245.159C75.8906 246.175 75.4688 246.542 74.6953 246.542C74.5078 246.542 74.2969 246.534 74.1328 246.503V247.651C74.3203 247.683 74.5547 247.698 74.7344 247.698ZM83.8125 244.729C84.375 244.729 84.8281 244.269 84.8281 243.714C84.8281 243.151 84.375 242.698 83.8125 242.698C83.2578 242.698 82.7969 243.151 82.7969 243.714C82.7969 244.269 83.2578 244.729 83.8125 244.729ZM83.8125 238.722C84.375 238.722 84.8281 238.261 84.8281 237.706C84.8281 237.144 84.375 236.69 83.8125 236.69C83.2578 236.69 82.7969 237.144 82.7969 237.706C82.7969 238.261 83.2578 238.722 83.8125 238.722ZM95.8828 244.651H97L97.6406 241.503H99.6875L99.9062 240.378H97.8672L98.4531 237.534H100.414L100.633 236.417H98.6875L99.3125 233.378H98.1953L97.5625 236.417H95.0156L95.625 233.378H94.5156L93.8828 236.417H91.9531L91.7266 237.534H93.6562L93.0859 240.378H91.2344L91.0156 241.503H92.8438L92.2109 244.651H93.3203L93.9609 241.503H96.5234L95.8828 244.651ZM94.1797 240.401L94.7656 237.519H97.3438L96.7578 240.401H94.1797ZM106.664 244.651C109.062 244.651 110.484 243.472 110.484 241.487C110.484 239.995 109.508 238.94 107.969 238.745V238.62C109.055 238.425 109.914 237.362 109.914 236.19C109.914 234.464 108.648 233.378 106.578 233.378H102.266V244.651H106.664ZM103.672 234.62H106.281C107.68 234.62 108.492 235.284 108.492 236.433C108.492 237.628 107.625 238.237 105.922 238.237H103.672V234.62ZM103.672 243.409V239.448H106.32C108.117 239.448 109.039 240.112 109.039 241.417C109.039 242.722 108.148 243.409 106.453 243.409H103.672ZM117.75 244.651H119.125V242.315H120.727V241.058H119.125V233.378H117.086C115.055 236.417 113.266 239.245 112.258 241.034V242.315H117.75V244.651ZM113.695 240.972C115.039 238.69 116.508 236.362 117.664 234.683H117.758V241.065H113.695V240.972ZM126.883 244.909C129.195 244.909 130.836 243.292 130.836 241.026C130.836 238.839 129.281 237.253 127.133 237.253C125.789 237.253 124.688 237.894 124.133 238.987H124.008C124.086 235.987 125.125 234.362 126.961 234.362C128.07 234.362 128.922 235.003 129.227 236.058H130.672C130.312 234.245 128.891 233.112 126.977 233.112C124.219 233.112 122.641 235.331 122.641 239.206C122.641 240.448 122.82 241.487 123.188 242.347C123.891 244.003 125.188 244.909 126.883 244.909ZM126.867 243.675C125.422 243.675 124.32 242.534 124.32 241.026C124.32 239.534 125.391 238.472 126.883 238.472C128.375 238.472 129.414 239.534 129.414 241.073C129.414 242.55 128.312 243.675 126.867 243.675ZM136.953 244.917C139.344 244.917 141.016 243.565 141.016 241.636C141.016 240.167 140.086 239.026 138.672 238.761V238.636C139.836 238.315 140.555 237.354 140.555 236.12C140.555 234.362 139.062 233.112 136.953 233.112C134.844 233.112 133.352 234.362 133.352 236.12C133.352 237.347 134.086 238.323 135.234 238.636V238.761C133.82 239.026 132.891 240.167 132.891 241.636C132.891 243.565 134.562 244.917 136.953 244.917ZM136.953 243.714C135.391 243.714 134.312 242.823 134.312 241.534C134.312 240.245 135.391 239.354 136.953 239.354C138.516 239.354 139.594 240.245 139.594 241.534C139.594 242.823 138.516 243.714 136.953 243.714ZM136.953 238.167C135.625 238.167 134.734 237.401 134.734 236.253C134.734 235.089 135.617 234.315 136.953 234.315C138.289 234.315 139.172 235.089 139.172 236.253C139.172 237.401 138.281 238.167 136.953 238.167ZM147.039 244.917C149.375 244.917 150.977 243.354 150.977 241.065C150.977 238.847 149.477 237.292 147.336 237.292C146.297 237.292 145.5 237.612 144.953 238.253H144.828L145.148 234.636H150.336V233.378H144.047L143.43 239.769H144.75C145.211 238.964 146.055 238.503 147.078 238.503C148.555 238.503 149.57 239.558 149.57 241.104C149.57 242.651 148.562 243.683 147.055 243.683C145.727 243.683 144.758 242.87 144.633 241.651H143.25C143.375 243.597 144.906 244.917 147.039 244.917ZM160.391 243.386H154.812V239.511H160.102V238.261H154.812V234.644H160.391V233.378H153.406V244.651H160.391V243.386ZM48.8672 288.753H48.9609L51.5547 297.651H52.8828L55.9531 286.378H54.4844L52.2422 295.542H52.1484L49.625 286.378H48.2031L45.6797 295.542H45.5859L43.3438 286.378H41.875L44.9453 297.651H46.2734L48.8672 288.753ZM58 297.651H59.3438V292.667C59.3438 291.245 60.1719 290.292 61.6797 290.292C62.9531 290.292 63.625 291.034 63.625 292.526V297.651H64.9688V292.198C64.9688 290.222 63.8438 289.081 62.0625 289.081C60.7734 289.081 59.8906 289.628 59.4688 290.558H59.3438V285.886H58V297.651ZM67.4531 297.651H68.7969V289.229H67.4531V297.651ZM68.125 287.519C68.6406 287.519 69.0625 287.097 69.0625 286.581C69.0625 286.065 68.6406 285.644 68.125 285.644C67.6094 285.644 67.1875 286.065 67.1875 286.581C67.1875 287.097 67.6094 287.519 68.125 287.519ZM71.9219 287.05V289.229H70.5625V290.354H71.9219V295.464C71.9219 297.073 72.6172 297.714 74.3516 297.714C74.6172 297.714 74.875 297.683 75.1406 297.636V296.503C74.8906 296.526 74.7578 296.534 74.5156 296.534C73.6406 296.534 73.2656 296.112 73.2656 295.12V290.354H75.1406V289.229H73.2656V287.05H71.9219ZM80.4062 290.269C81.7422 290.269 82.6328 291.253 82.6641 292.745H78.0234C78.125 291.253 79.0625 290.269 80.4062 290.269ZM82.625 295.472C82.2734 296.214 81.5391 296.612 80.4531 296.612C79.0234 296.612 78.0938 295.558 78.0234 293.894V293.831H84.0781V293.315C84.0781 290.698 82.6953 289.081 80.4219 289.081C78.1094 289.081 76.625 290.8 76.625 293.448C76.625 296.112 78.0859 297.8 80.4219 297.8C82.2656 297.8 83.5625 296.917 83.9688 295.472H82.625ZM87.2969 297.729C87.8594 297.729 88.3125 297.269 88.3125 296.714C88.3125 296.151 87.8594 295.698 87.2969 295.698C86.7422 295.698 86.2812 296.151 86.2812 296.714C86.2812 297.269 86.7422 297.729 87.2969 297.729ZM87.2969 291.722C87.8594 291.722 88.3125 291.261 88.3125 290.706C88.3125 290.144 87.8594 289.69 87.2969 289.69C86.7422 289.69 86.2812 290.144 86.2812 290.706C86.2812 291.261 86.7422 291.722 87.2969 291.722ZM99.3672 297.651H100.484L101.125 294.503H103.172L103.391 293.378H101.352L101.938 290.534H103.898L104.117 289.417H102.172L102.797 286.378H101.68L101.047 289.417H98.5L99.1094 286.378H98L97.3672 289.417H95.4375L95.2109 290.534H97.1406L96.5703 293.378H94.7188L94.5 294.503H96.3281L95.6953 297.651H96.8047L97.4453 294.503H100.008L99.3672 297.651ZM97.6641 293.401L98.25 290.519H100.828L100.242 293.401H97.6641ZM107.156 297.651V292.769H112.148V291.519H107.156V287.644H112.594V286.378H105.75V297.651H107.156ZM118.445 297.917C120.781 297.917 122.383 296.354 122.383 294.065C122.383 291.847 120.883 290.292 118.742 290.292C117.703 290.292 116.906 290.612 116.359 291.253H116.234L116.555 287.636H121.742V286.378H115.453L114.836 292.769H116.156C116.617 291.964 117.461 291.503 118.484 291.503C119.961 291.503 120.977 292.558 120.977 294.104C120.977 295.651 119.969 296.683 118.461 296.683C117.133 296.683 116.164 295.87 116.039 294.651H114.656C114.781 296.597 116.312 297.917 118.445 297.917ZM126.219 297.651V292.769H131.211V291.519H126.219V287.644H131.656V286.378H124.812V297.651H126.219ZM137.508 297.917C139.844 297.917 141.445 296.354 141.445 294.065C141.445 291.847 139.945 290.292 137.805 290.292C136.766 290.292 135.969 290.612 135.422 291.253H135.297L135.617 287.636H140.805V286.378H134.516L133.898 292.769H135.219C135.68 291.964 136.523 291.503 137.547 291.503C139.023 291.503 140.039 292.558 140.039 294.104C140.039 295.651 139.031 296.683 137.523 296.683C136.195 296.683 135.227 295.87 135.102 294.651H133.719C133.844 296.597 135.375 297.917 137.508 297.917ZM145.281 297.651V292.769H150.273V291.519H145.281V287.644H150.719V286.378H143.875V297.651H145.281ZM156.57 297.917C158.906 297.917 160.508 296.354 160.508 294.065C160.508 291.847 159.008 290.292 156.867 290.292C155.828 290.292 155.031 290.612 154.484 291.253H154.359L154.68 287.636H159.867V286.378H153.578L152.961 292.769H154.281C154.742 291.964 155.586 291.503 156.609 291.503C158.086 291.503 159.102 292.558 159.102 294.104C159.102 295.651 158.094 296.683 156.586 296.683C155.258 296.683 154.289 295.87 154.164 294.651H152.781C152.906 296.597 154.438 297.917 156.57 297.917Z" fill="black"/>
</g>
<defs>
<clipPath id="clip0_743_2676">
<rect width="221" height="318" fill="white" transform="translate(0.5 0.651367)"/>
</clipPath>
</defs>
</svg>
