<svg width="326" height="517" viewBox="0 0 326 517" fill="none" xmlns="http://www.w3.org/2000/svg">
<g clip-path="url(#clip0_827_1959)">
<circle cx="295.5" cy="45" r="29.5" fill="#343434" stroke="black"/>
<circle cx="294.5" cy="306" r="30" fill="#DDC0B5"/>
<circle cx="294.5" cy="132" r="30" fill="#003F5C"/>
<circle cx="295.5" cy="392" r="30" fill="#A69088"/>
<circle cx="294.5" cy="219" r="30" fill="#F37021"/>
<circle cx="295.5" cy="479" r="29.5" fill="#F5F5F5" stroke="black"/>
<path d="M64.7236 52.6514C68.6211 52.6514 70.9316 50.7344 70.9316 47.5098C70.9316 45.085 69.3447 43.3711 66.8438 43.0537V42.8506C68.6084 42.5332 70.0049 40.8066 70.0049 38.9023C70.0049 36.0967 67.9482 34.332 64.584 34.332H57.5762V52.6514H64.7236ZM59.8613 36.3506H64.1016C66.374 36.3506 67.6943 37.4297 67.6943 39.2959C67.6943 41.2383 66.2852 42.2285 63.5176 42.2285H59.8613V36.3506ZM59.8613 50.6328V44.1963H64.165C67.085 44.1963 68.583 45.2754 68.583 47.3955C68.583 49.5156 67.1357 50.6328 64.3809 50.6328H59.8613ZM74.5117 52.6514H76.6953V33.5322H74.5117V52.6514ZM85.1504 50.9756C83.5635 50.9756 82.3828 50.1631 82.3828 48.7666C82.3828 47.3955 83.2969 46.6719 85.3789 46.5322L89.0605 46.291V47.5479C89.0605 49.5029 87.3975 50.9756 85.1504 50.9756ZM84.7441 52.8926C86.5723 52.8926 88.0703 52.0928 88.959 50.6328H89.1621V52.6514H91.2441V43.2822C91.2441 40.4385 89.3779 38.7246 86.0391 38.7246C83.1191 38.7246 80.9609 40.1719 80.6689 42.3682H82.8779C83.1826 41.2891 84.3252 40.667 85.9629 40.667C88.0068 40.667 89.0605 41.5938 89.0605 43.2822V44.5264L85.1123 44.7676C81.9258 44.958 80.123 46.3672 80.123 48.8174C80.123 51.3184 82.0908 52.8926 84.7441 52.8926ZM106.605 43.1553C106.225 40.7178 104.193 38.7246 100.867 38.7246C97.0332 38.7246 94.5957 41.4922 94.5957 45.7578C94.5957 50.1123 97.0459 52.8926 100.88 52.8926C104.168 52.8926 106.212 51.0391 106.605 48.5254H104.396C103.99 50.0742 102.708 50.9248 100.867 50.9248C98.4297 50.9248 96.8555 48.9189 96.8555 45.7578C96.8555 42.6602 98.4043 40.6924 100.867 40.6924C102.835 40.6924 104.041 41.7969 104.396 43.1553H106.605ZM112.344 44.9453H112.141V33.5322H109.957V52.6514H112.141V47.459L113.448 46.2402L118.577 52.6514H121.357L115.073 44.8311L120.964 38.9658H118.285L112.344 44.9453ZM125.75 52.7783C126.664 52.7783 127.4 52.0293 127.4 51.1279C127.4 50.2139 126.664 49.4775 125.75 49.4775C124.849 49.4775 124.1 50.2139 124.1 51.1279C124.1 52.0293 124.849 52.7783 125.75 52.7783ZM125.75 43.0156C126.664 43.0156 127.4 42.2666 127.4 41.3652C127.4 40.4512 126.664 39.7148 125.75 39.7148C124.849 39.7148 124.1 40.4512 124.1 41.3652C124.1 42.2666 124.849 43.0156 125.75 43.0156ZM145.364 52.6514H147.18L148.221 47.5352H151.547L151.902 45.707H148.589L149.541 41.0859H152.728L153.083 39.2705H149.922L150.938 34.332H149.122L148.094 39.2705H143.955L144.945 34.332H143.143L142.114 39.2705H138.979L138.61 41.0859H141.746L140.819 45.707H137.811L137.455 47.5352H140.426L139.397 52.6514H141.2L142.241 47.5352H146.405L145.364 52.6514ZM142.597 45.7451L143.549 41.0605H147.738L146.786 45.7451H142.597ZM159.189 44.209H161.513C164.115 44.209 165.728 45.5293 165.728 47.6494C165.728 49.6553 164.014 51.0898 161.602 51.0898C159.24 51.0898 157.59 49.833 157.387 47.8779H155.178C155.343 51.0137 157.907 53.083 161.627 53.083C165.245 53.083 168.076 50.7344 168.076 47.7129C168.076 45.2119 166.565 43.4854 164.077 43.168V42.9648C166.083 42.4824 167.289 40.8828 167.289 38.6992C167.289 36.0332 164.737 33.9004 161.538 33.9004C158.047 33.9004 155.774 35.8555 155.546 39.0293H157.768C157.958 37.0615 159.342 35.8936 161.449 35.8936C163.557 35.8936 164.966 37.1377 164.966 39.0039C164.966 40.9082 163.493 42.2539 161.411 42.2539H159.189V44.209ZM180.111 52.6514H182.346V48.8555H184.948V46.8115H182.346V34.332H179.032C175.731 39.2705 172.824 43.8662 171.187 46.7734V48.8555H180.111V52.6514ZM173.522 46.6719C175.706 42.9648 178.093 39.1816 179.972 36.4521H180.124V46.8242H173.522V46.6719ZM192.223 44.209H194.546C197.148 44.209 198.761 45.5293 198.761 47.6494C198.761 49.6553 197.047 51.0898 194.635 51.0898C192.273 51.0898 190.623 49.833 190.42 47.8779H188.211C188.376 51.0137 190.94 53.083 194.66 53.083C198.278 53.083 201.109 50.7344 201.109 47.7129C201.109 45.2119 199.599 43.4854 197.11 43.168V42.9648C199.116 42.4824 200.322 40.8828 200.322 38.6992C200.322 36.0332 197.771 33.9004 194.571 33.9004C191.08 33.9004 188.808 35.8555 188.579 39.0293H190.801C190.991 37.0615 192.375 35.8936 194.482 35.8936C196.59 35.8936 197.999 37.1377 197.999 39.0039C197.999 40.9082 196.526 42.2539 194.444 42.2539H192.223V44.209ZM213.145 52.6514H215.379V48.8555H217.981V46.8115H215.379V34.332H212.065C208.765 39.2705 205.857 43.8662 204.22 46.7734V48.8555H213.145V52.6514ZM206.556 46.6719C208.739 42.9648 211.126 39.1816 213.005 36.4521H213.157V46.8242H206.556V46.6719ZM225.256 44.209H227.579C230.182 44.209 231.794 45.5293 231.794 47.6494C231.794 49.6553 230.08 51.0898 227.668 51.0898C225.307 51.0898 223.656 49.833 223.453 47.8779H221.244C221.409 51.0137 223.974 53.083 227.693 53.083C231.312 53.083 234.143 50.7344 234.143 47.7129C234.143 45.2119 232.632 43.4854 230.144 43.168V42.9648C232.149 42.4824 233.355 40.8828 233.355 38.6992C233.355 36.0332 230.804 33.9004 227.604 33.9004C224.113 33.9004 221.841 35.8555 221.612 39.0293H223.834C224.024 37.0615 225.408 35.8936 227.516 35.8936C229.623 35.8936 231.032 37.1377 231.032 39.0039C231.032 40.9082 229.56 42.2539 227.478 42.2539H225.256V44.209ZM246.178 52.6514H248.412V48.8555H251.015V46.8115H248.412V34.332H245.099C241.798 39.2705 238.891 43.8662 237.253 46.7734V48.8555H246.178V52.6514ZM239.589 46.6719C241.772 42.9648 244.159 39.1816 246.038 36.4521H246.19V46.8242H239.589V46.6719ZM30.8652 120.332V138.651H33.1504V132.113H37.7588C41.1992 132.113 43.6494 129.688 43.6494 126.261C43.6494 122.77 41.25 120.332 37.7842 120.332H30.8652ZM33.1504 122.363H37.1875C39.8408 122.363 41.3008 123.747 41.3008 126.261C41.3008 128.686 39.79 130.082 37.1875 130.082H33.1504V122.363ZM47.1152 138.651H49.2988V130.171C49.2988 128.241 50.8096 126.845 52.8916 126.845C53.3232 126.845 54.1104 126.921 54.2881 126.972V124.788C54.0088 124.75 53.5518 124.725 53.1963 124.725C51.3809 124.725 49.8066 125.664 49.4004 126.997H49.1973V124.966H47.1152V138.651ZM57.0684 138.651H59.252V124.966H57.0684V138.651ZM58.1602 122.186C58.998 122.186 59.6836 121.5 59.6836 120.662C59.6836 119.824 58.998 119.139 58.1602 119.139C57.3223 119.139 56.6367 119.824 56.6367 120.662C56.6367 121.5 57.3223 122.186 58.1602 122.186ZM63.416 138.651H65.5996V130.171C65.5996 128.241 66.9834 126.692 68.7734 126.692C70.5 126.692 71.6299 127.733 71.6299 129.358V138.651H73.8135V129.854C73.8135 128.114 75.083 126.692 76.9873 126.692C78.917 126.692 79.8691 127.683 79.8691 129.701V138.651H82.0527V129.193C82.0527 126.324 80.4912 124.725 77.6982 124.725C75.8066 124.725 74.2451 125.677 73.5088 127.124H73.3057C72.6709 125.702 71.376 124.725 69.5225 124.725C67.6943 124.725 66.3232 125.601 65.7012 127.124H65.498V124.966H63.416V138.651ZM90.2539 136.976C88.667 136.976 87.4863 136.163 87.4863 134.767C87.4863 133.396 88.4004 132.672 90.4824 132.532L94.1641 132.291V133.548C94.1641 135.503 92.501 136.976 90.2539 136.976ZM89.8477 138.893C91.6758 138.893 93.1738 138.093 94.0625 136.633H94.2656V138.651H96.3477V129.282C96.3477 126.438 94.4814 124.725 91.1426 124.725C88.2227 124.725 86.0645 126.172 85.7725 128.368H87.9814C88.2861 127.289 89.4287 126.667 91.0664 126.667C93.1104 126.667 94.1641 127.594 94.1641 129.282V130.526L90.2158 130.768C87.0293 130.958 85.2266 132.367 85.2266 134.817C85.2266 137.318 87.1943 138.893 89.8477 138.893ZM100.385 138.651H102.568V130.171C102.568 128.241 104.079 126.845 106.161 126.845C106.593 126.845 107.38 126.921 107.558 126.972V124.788C107.278 124.75 106.821 124.725 106.466 124.725C104.65 124.725 103.076 125.664 102.67 126.997H102.467V124.966H100.385V138.651ZM111.455 143.603C113.88 143.603 114.972 142.663 116.14 139.489L121.484 124.966H119.161L115.416 136.227H115.213L111.455 124.966H109.094L114.159 138.664L113.905 139.477C113.334 141.127 112.648 141.724 111.392 141.724C111.087 141.724 110.744 141.711 110.478 141.66V143.526C110.782 143.577 111.163 143.603 111.455 143.603ZM126.207 138.778C127.121 138.778 127.857 138.029 127.857 137.128C127.857 136.214 127.121 135.478 126.207 135.478C125.306 135.478 124.557 136.214 124.557 137.128C124.557 138.029 125.306 138.778 126.207 138.778ZM126.207 129.016C127.121 129.016 127.857 128.267 127.857 127.365C127.857 126.451 127.121 125.715 126.207 125.715C125.306 125.715 124.557 126.451 124.557 127.365C124.557 128.267 125.306 129.016 126.207 129.016ZM145.821 138.651H147.637L148.678 133.535H152.004L152.359 131.707H149.046L149.998 127.086H153.185L153.54 125.271H150.379L151.395 120.332H149.579L148.551 125.271H144.412L145.402 120.332H143.6L142.571 125.271H139.436L139.067 127.086H142.203L141.276 131.707H138.268L137.912 133.535H140.883L139.854 138.651H141.657L142.698 133.535H146.862L145.821 138.651ZM143.054 131.745L144.006 127.061H148.195L147.243 131.745H143.054ZM162.059 139.083C166.172 139.083 168.533 135.604 168.533 129.523C168.533 123.455 166.134 119.9 162.059 119.9C157.958 119.9 155.559 123.442 155.559 129.485C155.559 135.579 157.933 139.083 162.059 139.083ZM162.059 137.09C159.354 137.09 157.856 134.386 157.856 129.485C157.856 124.648 159.38 121.906 162.059 121.906C164.737 121.906 166.235 124.623 166.235 129.485C166.235 134.398 164.763 137.09 162.059 137.09ZM178.436 139.083C182.549 139.083 184.91 135.604 184.91 129.523C184.91 123.455 182.511 119.9 178.436 119.9C174.335 119.9 171.936 123.442 171.936 129.485C171.936 135.579 174.31 139.083 178.436 139.083ZM178.436 137.09C175.731 137.09 174.233 134.386 174.233 129.485C174.233 124.648 175.757 121.906 178.436 121.906C181.114 121.906 182.612 124.623 182.612 129.485C182.612 134.398 181.14 137.09 178.436 137.09ZM192.4 130.209H194.724C197.326 130.209 198.938 131.529 198.938 133.649C198.938 135.655 197.225 137.09 194.812 137.09C192.451 137.09 190.801 135.833 190.598 133.878H188.389C188.554 137.014 191.118 139.083 194.838 139.083C198.456 139.083 201.287 136.734 201.287 133.713C201.287 131.212 199.776 129.485 197.288 129.168V128.965C199.294 128.482 200.5 126.883 200.5 124.699C200.5 122.033 197.948 119.9 194.749 119.9C191.258 119.9 188.985 121.855 188.757 125.029H190.979C191.169 123.062 192.553 121.894 194.66 121.894C196.768 121.894 198.177 123.138 198.177 125.004C198.177 126.908 196.704 128.254 194.622 128.254H192.4V130.209ZM207.533 138.651V130.717H215.646V128.686H207.533V122.389H216.369V120.332H205.248V138.651H207.533ZM225.878 139.083C229.674 139.083 232.276 136.544 232.276 132.824C232.276 129.219 229.839 126.692 226.36 126.692C224.672 126.692 223.377 127.213 222.488 128.254H222.285L222.806 122.376H231.235V120.332H221.016L220.013 130.717H222.158C222.907 129.409 224.278 128.66 225.941 128.66C228.341 128.66 229.991 130.374 229.991 132.888C229.991 135.401 228.354 137.077 225.903 137.077C223.745 137.077 222.171 135.757 221.968 133.776H219.721C219.924 136.938 222.412 139.083 225.878 139.083ZM243.601 139.083C247.498 139.083 250.393 136.912 251.002 133.548H248.679C248.095 135.668 246.152 136.976 243.601 136.976C240.071 136.976 237.862 134.094 237.862 129.498C237.862 124.902 240.071 122.008 243.588 122.008C246.114 122.008 248.069 123.493 248.679 125.854H251.002C250.456 122.325 247.447 119.9 243.588 119.9C238.611 119.9 235.514 123.582 235.514 129.498C235.514 135.401 238.624 139.083 243.601 139.083ZM1.9834 219.865C2.22461 223.026 4.90332 225.083 8.78809 225.083C12.9775 225.083 15.6309 222.938 15.6309 219.573C15.6309 216.882 14.1074 215.409 10.3115 214.457L8.39453 213.949C5.86816 213.302 4.86523 212.477 4.86523 211.042C4.86523 209.188 6.47754 207.97 8.91504 207.97C11.2002 207.97 12.749 209.087 13.0664 210.966H15.3643C15.1738 208.008 12.5332 205.9 8.99121 205.9C5.11914 205.9 2.5166 208.008 2.5166 211.118C2.5166 213.721 3.95117 215.219 7.26465 216.057L9.61328 216.666C12.1396 217.301 13.2822 218.291 13.2822 219.853C13.2822 221.668 11.4668 223.001 9.00391 223.001C6.40137 223.001 4.57324 221.782 4.29395 219.865H1.9834ZM24.6191 212.654C26.79 212.654 28.2373 214.254 28.2881 216.679H20.7471C20.9121 214.254 22.4355 212.654 24.6191 212.654ZM28.2246 221.109C27.6533 222.315 26.46 222.963 24.6953 222.963C22.3721 222.963 20.8613 221.249 20.7471 218.545V218.443H30.5859V217.605C30.5859 213.353 28.3389 210.725 24.6445 210.725C20.8867 210.725 18.4746 213.518 18.4746 217.821C18.4746 222.15 20.8486 224.893 24.6445 224.893C27.6406 224.893 29.748 223.458 30.4082 221.109H28.2246ZM45.3379 215.155C44.957 212.718 42.9258 210.725 39.5996 210.725C35.7656 210.725 33.3281 213.492 33.3281 217.758C33.3281 222.112 35.7783 224.893 39.6123 224.893C42.9004 224.893 44.9443 223.039 45.3379 220.525H43.1289C42.7227 222.074 41.4404 222.925 39.5996 222.925C37.1621 222.925 35.5879 220.919 35.5879 217.758C35.5879 214.66 37.1367 212.692 39.5996 212.692C41.5674 212.692 42.7734 213.797 43.1289 215.155H45.3379ZM54.1865 224.893C58.084 224.893 60.4961 222.201 60.4961 217.809C60.4961 213.403 58.084 210.725 54.1865 210.725C50.2891 210.725 47.877 213.403 47.877 217.809C47.877 222.201 50.2891 224.893 54.1865 224.893ZM54.1865 222.925C51.5967 222.925 50.1367 221.046 50.1367 217.809C50.1367 214.559 51.5967 212.692 54.1865 212.692C56.7764 212.692 58.2363 214.559 58.2363 217.809C58.2363 221.046 56.7764 222.925 54.1865 222.925ZM63.9238 224.651H66.1074V216.552C66.1074 214.152 67.5166 212.692 69.7002 212.692C71.8838 212.692 72.9248 213.86 72.9248 216.323V224.651H75.1084V215.79C75.1084 212.54 73.3945 210.725 70.3223 210.725C68.2275 210.725 66.8945 211.613 66.209 213.124H66.0059V210.966H63.9238V224.651ZM84.1729 224.893C86.0645 224.893 87.6895 223.991 88.5527 222.468H88.7559V224.651H90.8379V205.532H88.6543V213.124H88.4639C87.6895 211.626 86.0771 210.725 84.1729 210.725C80.6943 210.725 78.4219 213.518 78.4219 217.809C78.4219 222.112 80.6689 224.893 84.1729 224.893ZM84.6807 212.692C87.1562 212.692 88.7051 214.673 88.7051 217.809C88.7051 220.97 87.1689 222.925 84.6807 222.925C82.1797 222.925 80.6816 221.008 80.6816 217.809C80.6816 214.622 82.1924 212.692 84.6807 212.692ZM99.293 222.976C97.7061 222.976 96.5254 222.163 96.5254 220.767C96.5254 219.396 97.4395 218.672 99.5215 218.532L103.203 218.291V219.548C103.203 221.503 101.54 222.976 99.293 222.976ZM98.8867 224.893C100.715 224.893 102.213 224.093 103.102 222.633H103.305V224.651H105.387V215.282C105.387 212.438 103.521 210.725 100.182 210.725C97.2617 210.725 95.1035 212.172 94.8115 214.368H97.0205C97.3252 213.289 98.4678 212.667 100.105 212.667C102.149 212.667 103.203 213.594 103.203 215.282V216.526L99.2549 216.768C96.0684 216.958 94.2656 218.367 94.2656 220.817C94.2656 223.318 96.2334 224.893 98.8867 224.893ZM109.424 224.651H111.607V216.171C111.607 214.241 113.118 212.845 115.2 212.845C115.632 212.845 116.419 212.921 116.597 212.972V210.788C116.317 210.75 115.86 210.725 115.505 210.725C113.689 210.725 112.115 211.664 111.709 212.997H111.506V210.966H109.424V224.651ZM120.494 229.603C122.919 229.603 124.011 228.663 125.179 225.489L130.523 210.966H128.2L124.455 222.227H124.252L120.494 210.966H118.133L123.198 224.664L122.944 225.477C122.373 227.127 121.688 227.724 120.431 227.724C120.126 227.724 119.783 227.711 119.517 227.66V229.526C119.821 229.577 120.202 229.603 120.494 229.603ZM135.246 224.778C136.16 224.778 136.896 224.029 136.896 223.128C136.896 222.214 136.16 221.478 135.246 221.478C134.345 221.478 133.596 222.214 133.596 223.128C133.596 224.029 134.345 224.778 135.246 224.778ZM135.246 215.016C136.16 215.016 136.896 214.267 136.896 213.365C136.896 212.451 136.16 211.715 135.246 211.715C134.345 211.715 133.596 212.451 133.596 213.365C133.596 214.267 134.345 215.016 135.246 215.016ZM154.86 224.651H156.676L157.717 219.535H161.043L161.398 217.707H158.085L159.037 213.086H162.224L162.579 211.271H159.418L160.434 206.332H158.618L157.59 211.271H153.451L154.441 206.332H152.639L151.61 211.271H148.475L148.106 213.086H151.242L150.315 217.707H147.307L146.951 219.535H149.922L148.894 224.651H150.696L151.737 219.535H155.901L154.86 224.651ZM152.093 217.745L153.045 213.061H157.234L156.282 217.745H152.093ZM167.518 224.651V216.717H175.63V214.686H167.518V208.389H176.354V206.332H165.232V224.651H167.518ZM183.311 216.209H185.634C188.236 216.209 189.849 217.529 189.849 219.649C189.849 221.655 188.135 223.09 185.723 223.09C183.361 223.09 181.711 221.833 181.508 219.878H179.299C179.464 223.014 182.028 225.083 185.748 225.083C189.366 225.083 192.197 222.734 192.197 219.713C192.197 217.212 190.687 215.485 188.198 215.168V214.965C190.204 214.482 191.41 212.883 191.41 210.699C191.41 208.033 188.858 205.9 185.659 205.9C182.168 205.9 179.896 207.855 179.667 211.029H181.889C182.079 209.062 183.463 207.894 185.57 207.894C187.678 207.894 189.087 209.138 189.087 211.004C189.087 212.908 187.614 214.254 185.532 214.254H183.311V216.209ZM196.628 224.651H199.027L207.178 208.452V206.332H195.054V208.376H204.854V208.554L196.628 224.651ZM216.471 225.083C220.584 225.083 222.945 221.604 222.945 215.523C222.945 209.455 220.546 205.9 216.471 205.9C212.37 205.9 209.971 209.442 209.971 215.485C209.971 221.579 212.345 225.083 216.471 225.083ZM216.471 223.09C213.767 223.09 212.269 220.386 212.269 215.485C212.269 210.648 213.792 207.906 216.471 207.906C219.149 207.906 220.647 210.623 220.647 215.485C220.647 220.398 219.175 223.09 216.471 223.09ZM226.576 211.486V211.499H228.785V211.486C228.785 209.328 230.232 207.894 232.378 207.894C234.396 207.894 235.958 209.303 235.958 211.131C235.958 212.604 235.387 213.594 233.025 216.158L226.69 223.077V224.651H238.548V222.595H229.966V222.392L234.371 217.656C237.38 214.432 238.243 212.946 238.243 211.042C238.243 208.135 235.729 205.9 232.441 205.9C229.039 205.9 226.576 208.236 226.576 211.486ZM246.787 224.651H249.072V206.332H246.8L241.925 209.836V212.248L246.584 208.871H246.787V224.651ZM11.2764 310.651V294.389H17.1797V292.332H3.08789V294.389H8.99121V310.651H11.2764ZM23.3496 298.654C25.5205 298.654 26.9678 300.254 27.0186 302.679H19.4775C19.6426 300.254 21.166 298.654 23.3496 298.654ZM26.9551 307.109C26.3838 308.315 25.1904 308.963 23.4258 308.963C21.1025 308.963 19.5918 307.249 19.4775 304.545V304.443H29.3164V303.605C29.3164 299.353 27.0693 296.725 23.375 296.725C19.6172 296.725 17.2051 299.518 17.2051 303.821C17.2051 308.15 19.5791 310.893 23.375 310.893C26.3711 310.893 28.4785 309.458 29.1387 307.109H26.9551ZM32.7441 310.651H34.9277V302.171C34.9277 300.241 36.4385 298.845 38.5205 298.845C38.9521 298.845 39.7393 298.921 39.917 298.972V296.788C39.6377 296.75 39.1807 296.725 38.8252 296.725C37.0098 296.725 35.4355 297.664 35.0293 298.997H34.8262V296.966H32.7441V310.651ZM44.3223 293.424V296.966H42.1133V298.794H44.3223V307.097C44.3223 309.712 45.4521 310.753 48.2705 310.753C48.7021 310.753 49.1211 310.702 49.5527 310.626V308.785C49.1465 308.823 48.9307 308.836 48.5371 308.836C47.1152 308.836 46.5059 308.15 46.5059 306.538V298.794H49.5527V296.966H46.5059V293.424H44.3223ZM52.9043 310.651H55.0879V296.966H52.9043V310.651ZM53.9961 294.186C54.834 294.186 55.5195 293.5 55.5195 292.662C55.5195 291.824 54.834 291.139 53.9961 291.139C53.1582 291.139 52.4727 291.824 52.4727 292.662C52.4727 293.5 53.1582 294.186 53.9961 294.186ZM63.4668 308.976C61.8799 308.976 60.6992 308.163 60.6992 306.767C60.6992 305.396 61.6133 304.672 63.6953 304.532L67.377 304.291V305.548C67.377 307.503 65.7139 308.976 63.4668 308.976ZM63.0605 310.893C64.8887 310.893 66.3867 310.093 67.2754 308.633H67.4785V310.651H69.5605V301.282C69.5605 298.438 67.6943 296.725 64.3555 296.725C61.4355 296.725 59.2773 298.172 58.9854 300.368H61.1943C61.499 299.289 62.6416 298.667 64.2793 298.667C66.3232 298.667 67.377 299.594 67.377 301.282V302.526L63.4287 302.768C60.2422 302.958 58.4395 304.367 58.4395 306.817C58.4395 309.318 60.4072 310.893 63.0605 310.893ZM73.5977 310.651H75.7812V302.171C75.7812 300.241 77.292 298.845 79.374 298.845C79.8057 298.845 80.5928 298.921 80.7705 298.972V296.788C80.4912 296.75 80.0342 296.725 79.6787 296.725C77.8633 296.725 76.2891 297.664 75.8828 298.997H75.6797V296.966H73.5977V310.651ZM84.668 315.603C87.0928 315.603 88.1846 314.663 89.3525 311.489L94.6973 296.966H92.374L88.6289 308.227H88.4258L84.668 296.966H82.3066L87.3721 310.664L87.1182 311.477C86.5469 313.127 85.8613 313.724 84.6045 313.724C84.2998 313.724 83.957 313.711 83.6904 313.66V315.526C83.9951 315.577 84.376 315.603 84.668 315.603ZM109.322 310.651H111.607V292.332H109.335L104.46 295.836V298.248L109.119 294.871H109.322V310.651ZM118.895 310.778C119.809 310.778 120.545 310.029 120.545 309.128C120.545 308.214 119.809 307.478 118.895 307.478C117.993 307.478 117.244 308.214 117.244 309.128C117.244 310.029 117.993 310.778 118.895 310.778ZM118.895 301.016C119.809 301.016 120.545 300.267 120.545 299.365C120.545 298.451 119.809 297.715 118.895 297.715C117.993 297.715 117.244 298.451 117.244 299.365C117.244 300.267 117.993 301.016 118.895 301.016ZM138.509 310.651H140.324L141.365 305.535H144.691L145.047 303.707H141.733L142.686 299.086H145.872L146.228 297.271H143.066L144.082 292.332H142.267L141.238 297.271H137.1L138.09 292.332H136.287L135.259 297.271H132.123L131.755 299.086H134.891L133.964 303.707H130.955L130.6 305.535H133.57L132.542 310.651H134.345L135.386 305.535H139.55L138.509 310.651ZM135.741 303.745L136.693 299.061H140.883L139.931 303.745H135.741ZM148.881 292.332V310.651H155.165C160.611 310.651 163.811 307.262 163.811 301.485C163.811 295.722 160.599 292.332 155.165 292.332H148.881ZM151.166 294.389H155.013C159.075 294.389 161.475 297.029 161.475 301.511C161.475 305.979 159.101 308.595 155.013 308.595H151.166V294.389ZM167.771 292.332V310.651H174.056C179.502 310.651 182.701 307.262 182.701 301.485C182.701 295.722 179.489 292.332 174.056 292.332H167.771ZM170.057 294.389H173.903C177.966 294.389 180.365 297.029 180.365 301.511C180.365 305.979 177.991 308.595 173.903 308.595H170.057V294.389ZM194.038 311.083C197.936 311.083 200.83 308.912 201.439 305.548H199.116C198.532 307.668 196.59 308.976 194.038 308.976C190.509 308.976 188.3 306.094 188.3 301.498C188.3 296.902 190.509 294.008 194.025 294.008C196.552 294.008 198.507 295.493 199.116 297.854H201.439C200.894 294.325 197.885 291.9 194.025 291.9C189.049 291.9 185.951 295.582 185.951 301.498C185.951 307.401 189.062 311.083 194.038 311.083ZM211.139 311.083C215.252 311.083 217.613 307.604 217.613 301.523C217.613 295.455 215.214 291.9 211.139 291.9C207.038 291.9 204.639 295.442 204.639 301.485C204.639 307.579 207.013 311.083 211.139 311.083ZM211.139 309.09C208.435 309.09 206.937 306.386 206.937 301.485C206.937 296.648 208.46 293.906 211.139 293.906C213.817 293.906 215.315 296.623 215.315 301.485C215.315 306.398 213.843 309.09 211.139 309.09ZM228.798 310.651C232.695 310.651 235.006 308.734 235.006 305.51C235.006 303.085 233.419 301.371 230.918 301.054V300.851C232.683 300.533 234.079 298.807 234.079 296.902C234.079 294.097 232.022 292.332 228.658 292.332H221.65V310.651H228.798ZM223.936 294.351H228.176C230.448 294.351 231.769 295.43 231.769 297.296C231.769 299.238 230.359 300.229 227.592 300.229H223.936V294.351ZM223.936 308.633V302.196H228.239C231.159 302.196 232.657 303.275 232.657 305.396C232.657 307.516 231.21 308.633 228.455 308.633H223.936ZM244.489 311.083C248.285 311.083 250.888 308.544 250.888 304.824C250.888 301.219 248.45 298.692 244.972 298.692C243.283 298.692 241.988 299.213 241.1 300.254H240.896L241.417 294.376H249.847V292.332H239.627L238.624 302.717H240.77C241.519 301.409 242.89 300.66 244.553 300.66C246.952 300.66 248.603 302.374 248.603 304.888C248.603 307.401 246.965 309.077 244.515 309.077C242.356 309.077 240.782 307.757 240.579 305.776H238.332C238.535 308.938 241.023 311.083 244.489 311.083ZM13.6377 396.651V380.389H19.541V378.332H5.44922V380.389H11.3525V396.651H13.6377ZM25.7109 384.654C27.8818 384.654 29.3291 386.254 29.3799 388.679H21.8389C22.0039 386.254 23.5273 384.654 25.7109 384.654ZM29.3164 393.109C28.7451 394.315 27.5518 394.963 25.7871 394.963C23.4639 394.963 21.9531 393.249 21.8389 390.545V390.443H31.6777V389.605C31.6777 385.353 29.4307 382.725 25.7363 382.725C21.9785 382.725 19.5664 385.518 19.5664 389.821C19.5664 394.15 21.9404 396.893 25.7363 396.893C28.7324 396.893 30.8398 395.458 31.5 393.109H29.3164ZM35.1055 396.651H37.2891V388.171C37.2891 386.241 38.7998 384.845 40.8818 384.845C41.3135 384.845 42.1006 384.921 42.2783 384.972V382.788C41.999 382.75 41.542 382.725 41.1865 382.725C39.3711 382.725 37.7969 383.664 37.3906 384.997H37.1875V382.966H35.1055V396.651ZM46.6836 379.424V382.966H44.4746V384.794H46.6836V393.097C46.6836 395.712 47.8135 396.753 50.6318 396.753C51.0635 396.753 51.4824 396.702 51.9141 396.626V394.785C51.5078 394.823 51.292 394.836 50.8984 394.836C49.4766 394.836 48.8672 394.15 48.8672 392.538V384.794H51.9141V382.966H48.8672V379.424H46.6836ZM55.2656 396.651H57.4492V382.966H55.2656V396.651ZM56.3574 380.186C57.1953 380.186 57.8809 379.5 57.8809 378.662C57.8809 377.824 57.1953 377.139 56.3574 377.139C55.5195 377.139 54.834 377.824 54.834 378.662C54.834 379.5 55.5195 380.186 56.3574 380.186ZM65.8281 394.976C64.2412 394.976 63.0605 394.163 63.0605 392.767C63.0605 391.396 63.9746 390.672 66.0566 390.532L69.7383 390.291V391.548C69.7383 393.503 68.0752 394.976 65.8281 394.976ZM65.4219 396.893C67.25 396.893 68.748 396.093 69.6367 394.633H69.8398V396.651H71.9219V387.282C71.9219 384.438 70.0557 382.725 66.7168 382.725C63.7969 382.725 61.6387 384.172 61.3467 386.368H63.5557C63.8604 385.289 65.0029 384.667 66.6406 384.667C68.6846 384.667 69.7383 385.594 69.7383 387.282V388.526L65.79 388.768C62.6035 388.958 60.8008 390.367 60.8008 392.817C60.8008 395.318 62.7686 396.893 65.4219 396.893ZM75.959 396.651H78.1426V388.171C78.1426 386.241 79.6533 384.845 81.7354 384.845C82.167 384.845 82.9541 384.921 83.1318 384.972V382.788C82.8525 382.75 82.3955 382.725 82.04 382.725C80.2246 382.725 78.6504 383.664 78.2441 384.997H78.041V382.966H75.959V396.651ZM87.0293 401.603C89.4541 401.603 90.5459 400.663 91.7139 397.489L97.0586 382.966H94.7354L90.9902 394.227H90.7871L87.0293 382.966H84.668L89.7334 396.664L89.4795 397.477C88.9082 399.127 88.2227 399.724 86.9658 399.724C86.6611 399.724 86.3184 399.711 86.0518 399.66V401.526C86.3564 401.577 86.7373 401.603 87.0293 401.603ZM107.189 383.486V383.499H109.398V383.486C109.398 381.328 110.846 379.894 112.991 379.894C115.01 379.894 116.571 381.303 116.571 383.131C116.571 384.604 116 385.594 113.639 388.158L107.304 395.077V396.651H119.161V394.595H110.579V394.392L114.984 389.656C117.993 386.432 118.856 384.946 118.856 383.042C118.856 380.135 116.343 377.9 113.055 377.9C109.652 377.9 107.189 380.236 107.189 383.486ZM124.836 396.778C125.75 396.778 126.486 396.029 126.486 395.128C126.486 394.214 125.75 393.478 124.836 393.478C123.935 393.478 123.186 394.214 123.186 395.128C123.186 396.029 123.935 396.778 124.836 396.778ZM124.836 387.016C125.75 387.016 126.486 386.267 126.486 385.365C126.486 384.451 125.75 383.715 124.836 383.715C123.935 383.715 123.186 384.451 123.186 385.365C123.186 386.267 123.935 387.016 124.836 387.016ZM144.45 396.651H146.266L147.307 391.535H150.633L150.988 389.707H147.675L148.627 385.086H151.813L152.169 383.271H149.008L150.023 378.332H148.208L147.18 383.271H143.041L144.031 378.332H142.229L141.2 383.271H138.064L137.696 385.086H140.832L139.905 389.707H136.896L136.541 391.535H139.512L138.483 396.651H140.286L141.327 391.535H145.491L144.45 396.651ZM141.683 389.745L142.635 385.061H146.824L145.872 389.745H141.683ZM166.73 396.651H169.13L162.376 378.332H160.116L153.362 396.651H155.762L157.603 391.408H164.89L166.73 396.651ZM161.145 381.29H161.348L164.217 389.466H158.275L161.145 381.29ZM178.271 397.07C182.028 397.07 184.694 394.442 184.694 390.761C184.694 387.206 182.168 384.629 178.677 384.629C176.493 384.629 174.703 385.67 173.802 387.447H173.599C173.726 382.572 175.414 379.932 178.397 379.932C180.2 379.932 181.584 380.973 182.079 382.687H184.428C183.844 379.741 181.533 377.9 178.423 377.9C173.941 377.9 171.377 381.506 171.377 387.803C171.377 389.821 171.669 391.51 172.266 392.906C173.408 395.598 175.516 397.07 178.271 397.07ZM178.245 395.064C175.896 395.064 174.106 393.211 174.106 390.761C174.106 388.336 175.846 386.609 178.271 386.609C180.695 386.609 182.384 388.336 182.384 390.837C182.384 393.236 180.594 395.064 178.245 395.064ZM194.229 397.07C198.71 397.07 201.274 393.465 201.274 387.168C201.274 385.149 200.982 383.461 200.386 382.064C199.243 379.36 197.123 377.9 194.381 377.9C190.623 377.9 187.957 380.528 187.957 384.21C187.957 387.765 190.483 390.342 193.975 390.342C196.158 390.342 197.948 389.301 198.85 387.523H198.9H198.951H199.053C198.926 392.398 197.237 395.039 194.254 395.039C192.451 395.039 191.067 393.998 190.572 392.284H188.224C188.808 395.229 191.118 397.07 194.229 397.07ZM194.381 388.361C191.956 388.361 190.268 386.635 190.268 384.134C190.268 381.734 192.058 379.906 194.406 379.906C196.755 379.906 198.545 381.76 198.545 384.21C198.545 386.635 196.806 388.361 194.381 388.361ZM211.113 397.083C215.227 397.083 217.588 393.604 217.588 387.523C217.588 381.455 215.188 377.9 211.113 377.9C207.013 377.9 204.613 381.442 204.613 387.485C204.613 393.579 206.987 397.083 211.113 397.083ZM211.113 395.09C208.409 395.09 206.911 392.386 206.911 387.485C206.911 382.648 208.435 379.906 211.113 379.906C213.792 379.906 215.29 382.623 215.29 387.485C215.29 392.398 213.817 395.09 211.113 395.09ZM227.592 397.083C231.477 397.083 234.193 394.887 234.193 391.751C234.193 389.364 232.683 387.511 230.385 387.079V386.876C232.276 386.355 233.444 384.794 233.444 382.788C233.444 379.932 231.02 377.9 227.592 377.9C224.164 377.9 221.739 379.932 221.739 382.788C221.739 384.781 222.933 386.368 224.799 386.876V387.079C222.501 387.511 220.99 389.364 220.99 391.751C220.99 394.887 223.707 397.083 227.592 397.083ZM227.592 395.128C225.053 395.128 223.301 393.681 223.301 391.586C223.301 389.491 225.053 388.044 227.592 388.044C230.131 388.044 231.883 389.491 231.883 391.586C231.883 393.681 230.131 395.128 227.592 395.128ZM227.592 386.114C225.434 386.114 223.986 384.87 223.986 383.004C223.986 381.112 225.421 379.855 227.592 379.855C229.763 379.855 231.197 381.112 231.197 383.004C231.197 384.87 229.75 386.114 227.592 386.114ZM244.197 397.083C248.082 397.083 250.799 394.887 250.799 391.751C250.799 389.364 249.288 387.511 246.99 387.079V386.876C248.882 386.355 250.05 384.794 250.05 382.788C250.05 379.932 247.625 377.9 244.197 377.9C240.77 377.9 238.345 379.932 238.345 382.788C238.345 384.781 239.538 386.368 241.404 386.876V387.079C239.106 387.511 237.596 389.364 237.596 391.751C237.596 394.887 240.312 397.083 244.197 397.083ZM244.197 395.128C241.658 395.128 239.906 393.681 239.906 391.586C239.906 389.491 241.658 388.044 244.197 388.044C246.736 388.044 248.488 389.491 248.488 391.586C248.488 393.681 246.736 395.128 244.197 395.128ZM244.197 386.114C242.039 386.114 240.592 384.87 240.592 383.004C240.592 381.112 242.026 379.855 244.197 379.855C246.368 379.855 247.803 381.112 247.803 383.004C247.803 384.87 246.355 386.114 244.197 386.114ZM69.4717 468.191H69.624L73.8389 482.651H75.9971L80.9863 464.332H78.5996L74.9561 479.224H74.8037L70.7031 464.332H68.3926L64.292 479.224H64.1396L60.4961 464.332H58.1094L63.0986 482.651H65.2568L69.4717 468.191ZM84.3125 482.651H86.4961V474.552C86.4961 472.241 87.8418 470.692 90.292 470.692C92.3613 470.692 93.4531 471.898 93.4531 474.323V482.651H95.6367V473.79C95.6367 470.578 93.8086 468.725 90.9141 468.725C88.8193 468.725 87.3848 469.613 86.6992 471.124H86.4961V463.532H84.3125V482.651ZM99.6738 482.651H101.857V468.966H99.6738V482.651ZM100.766 466.186C101.604 466.186 102.289 465.5 102.289 464.662C102.289 463.824 101.604 463.139 100.766 463.139C99.9277 463.139 99.2422 463.824 99.2422 464.662C99.2422 465.5 99.9277 466.186 100.766 466.186ZM106.936 465.424V468.966H104.727V470.794H106.936V479.097C106.936 481.712 108.065 482.753 110.884 482.753C111.315 482.753 111.734 482.702 112.166 482.626V480.785C111.76 480.823 111.544 480.836 111.15 480.836C109.729 480.836 109.119 480.15 109.119 478.538V470.794H112.166V468.966H109.119V465.424H106.936ZM120.723 470.654C122.894 470.654 124.341 472.254 124.392 474.679H116.851C117.016 472.254 118.539 470.654 120.723 470.654ZM124.328 479.109C123.757 480.315 122.563 480.963 120.799 480.963C118.476 480.963 116.965 479.249 116.851 476.545V476.443H126.689V475.605C126.689 471.353 124.442 468.725 120.748 468.725C116.99 468.725 114.578 471.518 114.578 475.821C114.578 480.15 116.952 482.893 120.748 482.893C123.744 482.893 125.852 481.458 126.512 479.109H124.328ZM131.92 482.778C132.834 482.778 133.57 482.029 133.57 481.128C133.57 480.214 132.834 479.478 131.92 479.478C131.019 479.478 130.27 480.214 130.27 481.128C130.27 482.029 131.019 482.778 131.92 482.778ZM131.92 473.016C132.834 473.016 133.57 472.267 133.57 471.365C133.57 470.451 132.834 469.715 131.92 469.715C131.019 469.715 130.27 470.451 130.27 471.365C130.27 472.267 131.019 473.016 131.92 473.016ZM151.534 482.651H153.35L154.391 477.535H157.717L158.072 475.707H154.759L155.711 471.086H158.897L159.253 469.271H156.092L157.107 464.332H155.292L154.264 469.271H150.125L151.115 464.332H149.312L148.284 469.271H145.148L144.78 471.086H147.916L146.989 475.707H143.98L143.625 477.535H146.596L145.567 482.651H147.37L148.411 477.535H152.575L151.534 482.651ZM148.767 475.745L149.719 471.061H153.908L152.956 475.745H148.767ZM164.191 482.651V474.717H172.304V472.686H164.191V466.389H173.027V464.332H161.906V482.651H164.191ZM182.536 483.083C186.332 483.083 188.935 480.544 188.935 476.824C188.935 473.219 186.497 470.692 183.019 470.692C181.33 470.692 180.035 471.213 179.146 472.254H178.943L179.464 466.376H187.894V464.332H177.674L176.671 474.717H178.816C179.565 473.409 180.937 472.66 182.6 472.66C184.999 472.66 186.649 474.374 186.649 476.888C186.649 479.401 185.012 481.077 182.562 481.077C180.403 481.077 178.829 479.757 178.626 477.776H176.379C176.582 480.938 179.07 483.083 182.536 483.083ZM195.168 482.651V474.717H203.28V472.686H195.168V466.389H204.004V464.332H192.883V482.651H195.168ZM213.513 483.083C217.309 483.083 219.911 480.544 219.911 476.824C219.911 473.219 217.474 470.692 213.995 470.692C212.307 470.692 211.012 471.213 210.123 472.254H209.92L210.44 466.376H218.87V464.332H208.65L207.647 474.717H209.793C210.542 473.409 211.913 472.66 213.576 472.66C215.976 472.66 217.626 474.374 217.626 476.888C217.626 479.401 215.988 481.077 213.538 481.077C211.38 481.077 209.806 479.757 209.603 477.776H207.355C207.559 480.938 210.047 483.083 213.513 483.083ZM226.145 482.651V474.717H234.257V472.686H226.145V466.389H234.98V464.332H223.859V482.651H226.145ZM244.489 483.083C248.285 483.083 250.888 480.544 250.888 476.824C250.888 473.219 248.45 470.692 244.972 470.692C243.283 470.692 241.988 471.213 241.1 472.254H240.896L241.417 466.376H249.847V464.332H239.627L238.624 474.717H240.77C241.519 473.409 242.89 472.66 244.553 472.66C246.952 472.66 248.603 474.374 248.603 476.888C248.603 479.401 246.965 481.077 244.515 481.077C242.356 481.077 240.782 479.757 240.579 477.776H238.332C238.535 480.938 241.023 483.083 244.489 483.083Z" fill="black"/>
</g>
<defs>
<clipPath id="clip0_827_1959">
<rect width="325" height="516" fill="white" transform="translate(0.5 0.651367)"/>
</clipPath>
</defs>
</svg>
