<svg width="67" height="67" viewBox="0 0 67 67" fill="none" xmlns="http://www.w3.org/2000/svg">
<g clip-path="url(#clip0_41_2385)">
<g clip-path="url(#clip1_41_2385)">
<path d="M33.4945 67.0007C32.5983 67.0007 31.705 66.7662 30.9206 66.3112L22.7242 61.4621C21.5015 60.7781 22.0989 60.5352 22.5009 60.3928C24.134 59.8261 24.4634 59.6949 26.2082 58.7067C26.3897 58.6034 26.6298 58.6425 26.8168 58.7541L33.1148 62.4922C33.2317 62.5543 33.3621 62.5867 33.4945 62.5867C33.6269 62.5867 33.7572 62.5543 33.8741 62.4922L58.4268 48.3217C58.5413 48.2527 58.6359 48.1552 58.7015 48.0388C58.767 47.9223 58.8013 47.7909 58.8009 47.6573V19.3218C58.8007 19.1858 58.7654 19.0522 58.6984 18.9338C58.6314 18.8155 58.535 18.7164 58.4185 18.6463L33.8769 4.48693C33.7613 4.42238 33.6311 4.3885 33.4987 4.3885C33.3662 4.3885 33.236 4.42238 33.1204 4.48693L8.58443 18.6491C8.46747 18.7185 8.37034 18.8169 8.30238 18.9347C8.23442 19.0525 8.19792 19.1858 8.19639 19.3218V47.6573C8.19693 47.7912 8.23317 47.9226 8.30137 48.0379C8.36958 48.1533 8.46728 48.2483 8.58443 48.3133L15.3096 52.1993C18.9583 54.025 21.1944 51.8755 21.1944 49.7147V21.7394C21.1944 21.343 21.5126 21.0331 21.9091 21.0331H25.0218C25.4098 21.0331 25.7336 21.3458 25.7336 21.7394V49.7147C25.7336 54.5862 23.0816 57.3778 18.4641 57.3778C17.046 57.3778 15.9265 57.3778 12.8082 55.8396L6.36505 52.1351C5.58188 51.679 4.93203 51.0255 4.48038 50.2398C4.02873 49.454 3.79107 48.5635 3.79114 47.6573V19.3218C3.79114 17.4821 4.7766 15.7625 6.36505 14.8468L30.9178 0.659554C31.7087 0.226812 32.5957 0 33.4973 0C34.3988 0 35.2859 0.226812 36.0768 0.659554L60.6267 14.8468C62.2179 15.7653 63.2062 17.4821 63.2062 19.3218V47.6573C63.2046 48.5639 62.9656 49.4543 62.513 50.2399C62.0605 51.0254 61.4101 51.6789 60.6267 52.1351L36.0768 66.3112C35.2951 66.7662 34.4046 67.0007 33.4945 67.0007ZM53.3181 39.0645C53.3181 33.7603 49.7336 32.3478 42.1877 31.3511C34.5637 30.3433 33.7876 29.8213 33.7876 28.0374C33.7876 26.5634 34.4436 24.5953 40.0912 24.5953C45.1357 24.5953 46.995 25.6813 47.7599 29.0815C47.7947 29.2386 47.882 29.3792 48.0073 29.4801C48.1326 29.5811 48.2885 29.6364 48.4494 29.6371H51.6347C51.732 29.6361 51.8281 29.6156 51.9173 29.5767C52.0065 29.5379 52.087 29.4815 52.154 29.4109C52.2214 29.3377 52.2729 29.2512 52.3051 29.157C52.3373 29.0628 52.3495 28.9629 52.341 28.8638C51.8469 23.0068 47.9553 20.2766 40.0912 20.2766C33.0897 20.2766 28.9133 23.2302 28.9133 28.1854C28.9133 33.5593 33.0673 35.0445 39.7869 35.7089C47.8269 36.4962 48.4494 37.6715 48.4494 39.2516C48.4494 41.9958 46.2468 43.1655 41.0738 43.1655C34.5776 43.1655 33.1483 41.5351 32.6681 38.3024C32.6415 38.1345 32.5556 37.9817 32.4261 37.8716C32.2965 37.7615 32.1318 37.7014 31.9618 37.7022H28.7877C28.6946 37.7014 28.6023 37.7192 28.5161 37.7544C28.43 37.7896 28.3516 37.8415 28.2857 37.9072C28.2197 37.9729 28.1674 38.0511 28.1319 38.1371C28.0964 38.2231 28.0783 38.3154 28.0786 38.4085C28.0786 42.5457 30.3287 47.4758 41.0738 47.4758C48.857 47.4786 53.3181 44.4161 53.3181 39.0645Z" fill="black"/>
</g>
</g>
<defs>
<clipPath id="clip0_41_2385">
<rect width="67" height="67" fill="white"/>
</clipPath>
<clipPath id="clip1_41_2385">
<rect width="67" height="67" fill="white"/>
</clipPath>
</defs>
</svg>
